<mxfile host="app.diagrams.net" modified="2023-08-31T07:25:32.522Z" agent="Mozilla/5.0 (Linux; Android 13) AppleWebKit/537.36 (KHTML, like Gecko) Version/4.0 Chrome/115.0.5790.168 DuckDuckGo/5 Safari/537.36" version="21.7.1" etag="eJebhENEHMOAIYM4KiIt" type="github">
  <diagram name="Page-1" id="EsdEEDjkPf1RpWRIo3JP">
    <mxGraphModel>
      <root>
        <mxCell id="0" />
        <mxCell id="1" parent="0" />
      </root>
    </mxGraphModel>
  </diagram>
</mxfile>
